<svg xmlns="http://www.w3.org/2000/svg" xmlns:xlink="http://www.w3.org/1999/xlink" width="500" zoomAndPan="magnify" viewBox="0 0 375 374.999991" height="500" preserveAspectRatio="xMidYMid meet" version="1.0"><defs><clipPath id="1059606002"><path d="M 2.558594 2.558594 L 372.308594 2.558594 L 372.308594 372.308594 L 2.558594 372.308594 Z M 2.558594 2.558594 " clip-rule="nonzero"/></clipPath></defs><g clip-path="url(#1059606002)"><path fill="#000000" d="M 187.433594 2.558594 C 85.382812 2.558594 2.558594 85.382812 2.558594 187.433594 C 2.558594 289.484375 85.382812 372.308594 187.433594 372.308594 C 289.484375 372.308594 372.308594 289.484375 372.308594 187.433594 C 372.308594 85.382812 289.484375 2.558594 187.433594 2.558594 Z M 187.433594 76.507812 C 211.714844 76.507812 231.433594 96.226562 231.433594 120.507812 C 231.433594 144.789062 211.714844 164.632812 187.433594 164.632812 C 163.152344 164.632812 143.433594 144.789062 143.433594 120.507812 C 143.433594 96.226562 163.152344 76.507812 187.433594 76.507812 Z M 242.648438 298.359375 L 132.21875 298.359375 C 115.085938 298.359375 101.160156 284.429688 101.160156 267.300781 C 101.160156 219.726562 139.859375 181.023438 187.433594 181.023438 C 235.007812 181.023438 273.707031 219.726562 273.707031 267.300781 C 273.707031 284.429688 259.78125 298.359375 242.648438 298.359375 Z M 242.648438 298.359375 " fill-opacity="1" fill-rule="nonzero"/></g></svg>