<svg xmlns="http://www.w3.org/2000/svg" xmlns:xlink="http://www.w3.org/1999/xlink" width="500" zoomAndPan="magnify" viewBox="0 0 375 374.999991" height="500" preserveAspectRatio="xMidYMid meet" version="1.0"><defs><clipPath id="ebea4fdbe9"><path d="M 24.988281 270.578125 L 349.738281 270.578125 L 349.738281 308.113281 L 24.988281 308.113281 Z M 24.988281 270.578125 " clip-rule="nonzero"/></clipPath><clipPath id="4661bd0b4c"><path d="M 24.988281 166 L 349.738281 166 L 349.738281 205 L 24.988281 205 Z M 24.988281 166 " clip-rule="nonzero"/></clipPath><clipPath id="1c2b34c163"><path d="M 24.988281 66.632812 L 349.738281 66.632812 L 349.738281 105 L 24.988281 105 Z M 24.988281 66.632812 " clip-rule="nonzero"/></clipPath></defs><g clip-path="url(#ebea4fdbe9)"><path fill="#000000" d="M 43.726562 308.113281 L 331.003906 308.113281 C 341.351562 308.113281 349.738281 299.726562 349.738281 289.378906 C 349.738281 279.03125 341.351562 270.648438 331.003906 270.648438 L 43.726562 270.648438 C 33.378906 270.648438 24.988281 279.03125 24.988281 289.378906 C 24.988281 299.726562 33.378906 308.113281 43.726562 308.113281 " fill-opacity="1" fill-rule="nonzero"/></g><g clip-path="url(#4661bd0b4c)"><path fill="#000000" d="M 43.726562 204.035156 L 331.003906 204.035156 C 341.351562 204.035156 349.738281 195.648438 349.738281 185.300781 C 349.738281 174.953125 341.351562 166.570312 331.003906 166.570312 L 43.726562 166.570312 C 33.378906 166.570312 24.988281 174.953125 24.988281 185.300781 C 24.988281 195.648438 33.378906 204.035156 43.726562 204.035156 " fill-opacity="1" fill-rule="nonzero"/></g><g clip-path="url(#1c2b34c163)"><path fill="#000000" d="M 24.988281 85.390625 C 24.988281 95.734375 33.378906 104.121094 43.726562 104.121094 L 331.003906 104.121094 C 341.351562 104.121094 349.738281 95.734375 349.738281 85.390625 C 349.738281 75.042969 341.351562 66.65625 331.003906 66.65625 L 43.726562 66.65625 C 33.378906 66.65625 24.988281 75.042969 24.988281 85.390625 " fill-opacity="1" fill-rule="nonzero"/></g></svg>